REM MD5 5847425f4ace20f7b301252406e9b495
FILE "Interactive CD Sampler Disc 6 (USA) (Rev 1).bin" BINARY
  TRACK 01 MODE2/2352
    INDEX 01 00:00:00
  TRACK 02 AUDIO
    INDEX 00 54:55:10
    INDEX 01 54:57:10
  TRACK 03 AUDIO
    INDEX 00 56:52:10
    INDEX 01 56:54:10
  TRACK 04 AUDIO
    INDEX 00 59:52:72
    INDEX 01 59:54:72
REM LEADOUT 60:33:45
